<svg width="28" height="28" viewBox="0 0 28 28" fill="none" xmlns="http://www.w3.org/2000/svg">
<g opacity="0.5">
<path d="M19.641 5.979C19.3681 5.979 19.1013 6.05994 18.8743 6.21157C18.6474 6.36321 18.4705 6.57873 18.366 6.8309C18.2616 7.08306 18.2343 7.36053 18.2875 7.62822C18.3408 7.89592 18.4722 8.14181 18.6652 8.33481C18.8582 8.5278 19.1041 8.65924 19.3718 8.71248C19.6395 8.76573 19.9169 8.7384 20.1691 8.63395C20.4213 8.5295 20.6368 8.35263 20.7884 8.12569C20.9401 7.89875 21.021 7.63194 21.021 7.359C21.021 6.993 20.8756 6.64199 20.6168 6.38319C20.358 6.12439 20.007 5.979 19.641 5.979V5.979ZM24.931 8.762C24.9086 7.80784 24.7299 6.86381 24.402 5.9675C24.1096 5.2006 23.6545 4.50617 23.068 3.932C22.4985 3.34254 21.8025 2.8903 21.0325 2.6095C20.1386 2.27158 19.1935 2.08879 18.238 2.069C17.019 2 16.628 2 13.5 2C10.372 2 9.981 2 8.762 2.069C7.80653 2.08879 6.86144 2.27158 5.9675 2.6095C5.19893 2.89315 4.50347 3.34499 3.932 3.932C3.34254 4.50145 2.8903 5.19751 2.6095 5.9675C2.27158 6.86144 2.08879 7.80653 2.069 8.762C2 9.981 2 10.372 2 13.5C2 16.628 2 17.019 2.069 18.238C2.08879 19.1935 2.27158 20.1386 2.6095 21.0325C2.8903 21.8025 3.34254 22.4985 3.932 23.068C4.50347 23.655 5.19893 24.1069 5.9675 24.3905C6.86144 24.7284 7.80653 24.9112 8.762 24.931C9.981 25 10.372 25 13.5 25C16.628 25 17.019 25 18.238 24.931C19.1935 24.9112 20.1386 24.7284 21.0325 24.3905C21.8025 24.1097 22.4985 23.6575 23.068 23.068C23.6571 22.496 24.1126 21.8009 24.402 21.0325C24.7299 20.1362 24.9086 19.1922 24.931 18.238C24.931 17.019 25 16.628 25 13.5C25 10.372 25 9.981 24.931 8.762V8.762ZM22.861 18.1C22.8526 18.83 22.7204 19.5533 22.47 20.239C22.2864 20.7395 21.9915 21.1917 21.6075 21.5615C21.2345 21.9416 20.7832 22.2359 20.285 22.424C19.5993 22.6744 18.876 22.8066 18.146 22.815C16.996 22.8725 16.5705 22.884 13.546 22.884C10.5215 22.884 10.096 22.884 8.946 22.815C8.18802 22.8292 7.43328 22.7125 6.715 22.47C6.23865 22.2723 5.80806 21.9787 5.45 21.6075C5.0683 21.2381 4.77707 20.7855 4.599 20.285C4.31823 19.5894 4.16251 18.8497 4.139 18.1C4.139 16.95 4.07 16.5245 4.07 13.5C4.07 10.4755 4.07 10.05 4.139 8.9C4.14415 8.15371 4.28039 7.41414 4.5415 6.715C4.74395 6.2296 5.0547 5.79691 5.45 5.45C5.79939 5.05459 6.23118 4.74056 6.715 4.53C7.41598 4.27705 8.1548 4.14484 8.9 4.139C10.05 4.139 10.4755 4.07 13.5 4.07C16.5245 4.07 16.95 4.07 18.1 4.139C18.83 4.14737 19.5533 4.27958 20.239 4.53C20.7616 4.72395 21.2306 5.03927 21.6075 5.45C21.9844 5.80326 22.2788 6.23514 22.47 6.715C22.7256 7.41527 22.8579 8.15455 22.861 8.9C22.9185 10.05 22.93 10.4755 22.93 13.5C22.93 16.5245 22.9185 16.95 22.861 18.1ZM13.5 7.6005C12.3337 7.60277 11.1942 7.9507 10.2256 8.60033C9.2569 9.24996 8.50254 10.1721 8.05778 11.2503C7.61302 12.3285 7.49783 13.5143 7.72676 14.658C7.95569 15.8016 8.51847 16.8517 9.34399 17.6756C10.1695 18.4995 11.2207 19.0603 12.3648 19.287C13.5089 19.5137 14.6945 19.3962 15.7718 18.9493C16.8491 18.5025 17.7698 17.7463 18.4175 16.7764C19.0653 15.8065 19.411 14.6663 19.411 13.5C19.4125 12.7239 19.2606 11.9551 18.9639 11.2379C18.6673 10.5207 18.2317 9.86923 17.6824 9.32096C17.1331 8.77269 16.4807 8.33843 15.763 8.04317C15.0452 7.74791 14.2761 7.59747 13.5 7.6005V7.6005ZM13.5 17.3295C12.7426 17.3295 12.0022 17.1049 11.3724 16.6841C10.7427 16.2633 10.2518 15.6652 9.962 14.9655C9.67216 14.2657 9.59632 13.4958 9.74408 12.7529C9.89184 12.0101 10.2566 11.3277 10.7921 10.7921C11.3277 10.2566 12.0101 9.89184 12.7529 9.74408C13.4958 9.59632 14.2657 9.67216 14.9655 9.962C15.6652 10.2518 16.2633 10.7427 16.6841 11.3724C17.1049 12.0022 17.3295 12.7426 17.3295 13.5C17.3295 14.0029 17.2304 14.5009 17.038 14.9655C16.8455 15.4301 16.5635 15.8523 16.2079 16.2079C15.8523 16.5635 15.4301 16.8455 14.9655 17.038C14.5009 17.2304 14.0029 17.3295 13.5 17.3295V17.3295Z" fill="white"/>
</g>
</svg>
