<svg width="48" height="48" viewBox="0 0 48 48" fill="none" xmlns="http://www.w3.org/2000/svg">
<g opacity="0.5">
<path d="M26.5239 29.671L30.0108 33.0117C30.7252 33.6946 30.7252 34.8037 30.0108 35.4873C29.2972 36.1709 28.1407 36.1709 27.4277 35.4873L23.9993 32.2045L20.5739 35.4873C20.2167 35.8288 19.7486 35.9996 19.2806 35.9996C18.8134 35.9996 18.3461 35.8288 17.9889 35.4873C17.2753 34.8037 17.2753 33.6953 17.9881 33.0117L21.4756 29.671C20.2059 29.3939 18.9814 28.9119 17.8535 28.234C16.9999 27.7185 16.7435 26.6384 17.2813 25.82C17.8176 25.0005 18.9455 24.7538 19.8006 25.2694C22.3542 26.8082 25.6438 26.8086 28.1989 25.2694C29.0539 24.7538 30.1814 25.0005 30.7189 25.82C31.2567 26.6376 30.9996 27.7185 30.146 28.234C29.0181 28.9126 27.7936 29.3939 26.5239 29.671Z" fill="white"/>
<path fill-rule="evenodd" clip-rule="evenodd" d="M18 18.0009C18 21.309 20.9153 24 24.5 24C28.0855 24 31 21.309 31 18.0009C31 14.6917 28.0855 12 24.5 12C20.9153 12 18 14.6917 18 18.0009ZM27.1913 18.0009C27.1913 16.6308 25.9841 15.5168 24.5 15.5168C23.017 15.5168 21.8087 16.6308 21.8087 18.0009C21.8087 19.3699 23.017 20.4847 24.5 20.4847C25.9841 20.4847 27.1913 19.3699 27.1913 18.0009Z" fill="white"/>
</g>
</svg>
