<svg width="28" height="28" viewBox="0 0 28 28" fill="none" xmlns="http://www.w3.org/2000/svg">
<g opacity="0.5">
<path d="M18.3037 10.4154C18.9477 9.78381 19.5871 8.31 16.9036 10.0996C13.0906 12.68 9.33244 15.1024 9.33244 15.1024C8.94559 15.2739 8.52737 15.367 8.1029 15.3761C7.67844 15.3851 7.25649 15.3099 6.8624 15.155C5.25227 14.6813 3.37262 14.0496 3.37262 14.0496C3.37262 14.0496 2.08918 13.2589 4.28619 12.4168C4.28619 12.4168 13.5748 8.67845 16.7962 7.3614C18.0306 6.83504 22.2182 5.15068 22.2182 5.15068C22.2182 5.15068 24.1515 4.41263 23.9905 6.2034C23.9368 6.94031 23.5074 9.52178 23.0781 12.3115C22.4328 16.2604 21.7351 20.5788 21.7351 20.5788C21.7351 20.5788 21.6278 21.7895 20.7154 22C19.7387 21.9838 18.7949 21.6506 18.0318 21.0525C17.8171 20.8946 14.0053 18.5249 12.6087 17.3669C12.4666 17.2725 12.3512 17.1444 12.2732 16.9945C12.1952 16.8446 12.157 16.6778 12.1624 16.5096C12.1678 16.3414 12.2164 16.1773 12.3038 16.0325C12.3912 15.8876 12.5146 15.7669 12.6624 15.6814C14.5992 13.9444 16.9082 11.7851 18.3037 10.4154Z" fill="white"/>
</g>
</svg>
