<svg width="35" height="35" viewBox="0 0 35 35" fill="none" xmlns="http://www.w3.org/2000/svg">
<g opacity="0.5">
<path d="M28 16.2889V12.0996C26.0604 12.0996 24.5802 11.5759 23.625 10.5581C22.6446 9.39647 22.0954 7.92542 22.0719 6.39828V6.09588L18.1563 6C18.1563 6 18.1563 6.16964 18.1563 6.39828V23.0154C18.0219 23.7578 17.6657 24.4406 17.1355 24.9717C16.6054 25.5028 15.9269 25.8565 15.1917 25.9852C14.4565 26.114 13.6999 26.0114 13.0242 25.6914C12.3484 25.3714 11.786 24.8494 11.4129 24.1958C11.0397 23.5423 10.8738 22.7887 10.9375 22.0367C11.0012 21.2847 11.2914 20.5706 11.769 19.9908C12.2467 19.411 12.8887 18.9934 13.6084 18.7943C14.3281 18.5953 15.0909 18.6244 15.7938 18.8777V14.8211C15.384 14.7532 14.9694 14.7187 14.5542 14.7179C13.0601 14.7179 11.5996 15.166 10.3573 16.0056C9.11502 16.8452 8.14679 18.0386 7.57503 19.4348C7.00327 20.8311 6.85368 22.3674 7.14515 23.8496C7.43663 25.3319 8.1561 26.6934 9.21257 27.762C10.269 28.8306 11.6151 29.5583 13.0804 29.8532C14.5458 30.148 16.0647 29.9967 17.445 29.4184C18.8254 28.84 20.0052 27.8606 20.8352 26.6041C21.6653 25.3475 22.1083 23.8702 22.1083 22.3589C22.1075 22.0458 22.088 21.733 22.05 21.4222V14.6736C23.8305 15.7984 25.902 16.3607 28 16.2889V16.2889Z" fill="white"/>
</g>
</svg>
