<svg width="27" height="27" viewBox="0 0 27 27" fill="none" xmlns="http://www.w3.org/2000/svg">
<g opacity="0.5">
<path d="M25 6.15652C24.1356 6.51704 23.2214 6.75537 22.286 6.86408C23.2729 6.29728 24.0125 5.4056 24.3675 4.35445C23.4401 4.88519 22.4249 5.25913 21.366 5.46001C20.6582 4.72213 19.7157 4.23095 18.6863 4.06352C17.6568 3.89608 16.5987 4.06187 15.6779 4.53486C14.757 5.00786 14.0255 5.76131 13.598 6.67706C13.1706 7.59281 13.0714 8.61905 13.316 9.59484C11.4408 9.50366 9.60661 9.03426 7.93245 8.21715C6.2583 7.40003 4.78167 6.25347 3.5985 4.85195C3.18351 5.54864 2.96545 6.33764 2.966 7.14048C2.96453 7.88605 3.15485 8.62041 3.52002 9.27816C3.88519 9.93592 4.41387 10.4967 5.059 10.9105C4.30917 10.8908 3.57537 10.6974 2.92 10.3466V10.4019C2.92562 11.4465 3.30639 12.4573 3.99791 13.2631C4.68943 14.0689 5.64924 14.6204 6.715 14.8242C6.30474 14.9442 5.87881 15.0075 5.45 15.0121C5.15317 15.0088 4.85709 14.9829 4.5645 14.9347C4.868 15.8333 5.45532 16.6187 6.24474 17.1814C7.03416 17.7442 7.98641 18.0564 8.969 18.0745C7.30978 19.3297 5.26127 20.0147 3.15 20.0203C2.7656 20.0216 2.3815 19.9994 2 19.954C4.15559 21.292 6.66763 22.0023 9.2335 21.9993C11.0041 22.017 12.7607 21.6953 14.4006 21.053C16.0405 20.4108 17.5308 19.4608 18.7845 18.2586C20.0382 17.0564 21.0302 15.6261 21.7024 14.0513C22.3747 12.4764 22.7138 10.7885 22.7 9.08628C22.7 8.89833 22.7 8.69933 22.7 8.50032C23.6024 7.85336 24.3807 7.06024 25 6.15652V6.15652Z" fill="white"/>
</g>
</svg>
