<svg width="24" height="24" viewBox="0 0 24 24" fill="none" xmlns="http://www.w3.org/2000/svg">
<g opacity="0.5" clip-path="url(#clip0_22_2800)">
<path fill-rule="evenodd" clip-rule="evenodd" d="M12 -1.19209e-07C18.6277 -1.19209e-07 24 5.37231 24 12C24 18.6277 18.6277 24 12 24C5.37231 24 0 18.6277 0 12C0 5.37231 5.37231 -1.19209e-07 12 -1.19209e-07ZM12.7186 4.8877C13.5346 4.9897 14.1941 5.18631 14.9174 5.53939C15.6291 5.88739 16.0846 6.21693 16.6869 6.816C17.2514 7.38185 17.5648 7.81061 17.8966 8.47615C18.3591 9.4043 18.6226 10.5083 18.6674 11.7231C18.684 12.1375 18.672 12.2298 18.5774 12.3485C18.3974 12.5778 18.0009 12.54 17.8657 12.282C17.8232 12.1966 17.8112 12.1232 17.7969 11.7919C17.7734 11.2828 17.7379 10.9532 17.6668 10.56C17.3866 9.01846 16.6468 7.78708 15.4652 6.9037C14.4812 6.16477 13.4635 5.80478 12.1306 5.72678C11.6797 5.70047 11.6017 5.68384 11.4997 5.60584C11.3095 5.45631 11.3003 5.10599 11.4831 4.94261C11.5943 4.84107 11.6723 4.82629 12.0591 4.83829C12.2608 4.84522 12.5575 4.86923 12.7191 4.88816L12.7186 4.8877ZM7.29647 5.14386C7.37955 5.17247 7.5074 5.23846 7.58124 5.286C8.0317 5.58416 9.28662 7.18753 9.69693 7.9883C9.93185 8.44522 10.0098 8.78399 9.93646 9.03507C9.8603 9.30507 9.73478 9.44722 9.17263 9.89953C8.9474 10.0818 8.736 10.2688 8.70323 10.3186C8.61784 10.4418 8.5486 10.6832 8.5486 10.854C8.55137 11.2496 8.80708 11.9672 9.14401 12.5188C9.40524 12.9475 9.87232 13.4972 10.3348 13.9186C10.878 14.4157 11.3571 14.7544 11.898 15.0221C12.5931 15.3683 13.0177 15.456 13.3283 15.3111C13.4068 15.2755 13.4898 15.228 13.5157 15.2068C13.5392 15.1855 13.722 14.9631 13.9214 14.7166C14.3054 14.2334 14.3931 14.1554 14.6566 14.0654C14.9912 13.9518 15.3328 13.9823 15.6766 14.1577C15.9374 14.2929 16.5064 14.6455 16.8743 14.9012C17.358 15.24 18.3928 16.0832 18.5322 16.2512C18.7791 16.5545 18.8215 16.9431 18.6559 17.3714C18.4805 17.8237 17.7974 18.672 17.3201 19.0343C16.8886 19.3611 16.5826 19.4866 16.1792 19.5051C15.8469 19.5221 15.7098 19.4935 15.2852 19.3182C11.9548 17.9474 9.29584 15.9009 7.18523 13.0897C6.08215 11.6211 5.24215 10.0984 4.66846 8.5186C4.33384 7.59737 4.3177 7.19723 4.59231 6.726C4.71093 6.52708 5.21631 6.03416 5.58415 5.75954C6.19569 5.30492 6.47815 5.13645 6.70338 5.08937C6.85753 5.05614 7.1257 5.08247 7.29647 5.14386V5.14386ZM12.8825 6.60506C14.3225 6.81599 15.4371 7.48385 16.1677 8.56846C16.578 9.17954 16.8342 9.89724 16.9218 10.6666C16.9528 10.9486 16.9528 11.4628 16.9195 11.5482C16.8886 11.6285 16.7889 11.7374 16.7035 11.7822C16.6112 11.8297 16.4142 11.8251 16.3052 11.7683C16.1225 11.676 16.068 11.5288 16.068 11.1314C16.068 10.5175 15.9088 9.87139 15.6342 9.36877C15.3247 8.79945 14.8674 8.32413 14.3105 7.99292C13.8337 7.70861 13.1289 7.49815 12.4865 7.446C12.2539 7.42707 12.1255 7.37954 12.0378 7.27754C11.9723 7.20545 11.9331 7.11327 11.9266 7.01604C11.9202 6.91881 11.9469 6.82226 12.0023 6.74214C12.1255 6.5506 12.3157 6.51968 12.8825 6.60506V6.60506ZM13.3874 8.39308C13.8549 8.49277 14.2131 8.66999 14.5191 8.95707C14.9128 9.32861 15.1283 9.77862 15.2234 10.4252C15.2875 10.8466 15.2612 11.0128 15.1121 11.1499C14.9718 11.2777 14.7134 11.2828 14.5569 11.1619C14.4429 11.0765 14.4074 10.9865 14.3815 10.7428C14.3506 10.4183 14.2938 10.1908 14.1964 9.97984C13.9878 9.53215 13.62 9.30047 12.9988 9.22432C12.7066 9.18878 12.6189 9.156 12.5243 9.04431C12.3512 8.83847 12.4172 8.5043 12.6572 8.38153C12.7472 8.3363 12.7851 8.3317 12.9845 8.34324C13.1197 8.35125 13.2543 8.36788 13.3874 8.39308Z" fill="white"/>
</g>
<defs>
<clipPath id="clip0_22_2800">
<rect width="24" height="24" fill="white"/>
</clipPath>
</defs>
</svg>
