<svg width="28" height="28" viewBox="0 0 28 28" fill="none" xmlns="http://www.w3.org/2000/svg">
<g opacity="0.5">
<path d="M27.3664 7.16872C27.0513 8.17915 26.6266 9.05867 26.0945 9.85725L26.1167 9.82155C25.5939 10.7102 24.9697 11.7369 24.2439 12.9016C23.6215 13.8212 23.2921 14.2973 23.2555 14.3298C23.0945 14.5357 22.9825 14.788 22.944 15.0653L22.9428 15.0736C22.9743 15.326 23.0887 15.5461 23.2555 15.7104L23.7223 16.2412C26.2194 18.8587 27.6239 20.663 27.9358 21.6539C27.9767 21.7634 28 21.8896 28 22.0217C28 22.2526 27.9277 22.4656 27.8051 22.6406L27.8075 22.637C27.6021 22.8524 27.3151 22.9857 26.9977 22.9857C26.9627 22.9857 26.9265 22.9845 26.8926 22.981H26.8973H23.8273C23.8261 22.981 23.8238 22.981 23.8215 22.981C23.4282 22.981 23.0665 22.8405 22.783 22.6073L22.7865 22.6096C22.3734 22.2633 22.0058 21.8884 21.6768 21.4814L21.6663 21.4671C21.1287 20.8474 20.6519 20.3257 20.2357 19.9021C18.8495 18.558 17.8265 17.886 17.1669 17.886C17.1424 17.8836 17.1144 17.8824 17.0852 17.8824C16.8926 17.8824 16.713 17.9431 16.5648 18.0466L16.5683 18.0442C16.4469 18.199 16.3734 18.3989 16.3734 18.6143C16.3734 18.6572 16.3757 18.6976 16.3816 18.7393V18.7345C16.3501 19.1082 16.3314 19.5426 16.3314 19.9818C16.3314 20.1234 16.3337 20.2639 16.3372 20.4043V20.3841V21.7634C16.3489 21.8194 16.3559 21.8836 16.3559 21.9491C16.3559 22.2371 16.2275 22.4942 16.0268 22.6644L16.0257 22.6656C15.5741 22.8762 15.0467 23 14.4901 23C14.3711 23 14.2544 22.994 14.1389 22.9833L14.154 22.9845C12.3174 22.9488 10.6138 22.4002 9.16569 21.4754L9.20654 21.4992C7.44341 20.4067 5.9825 18.9845 4.86931 17.304L4.83781 17.254C3.78063 15.8234 2.79463 14.2072 1.95449 12.5029L1.87281 12.3197C1.38156 11.3652 0.872812 10.1917 0.434072 8.98488L0.364061 8.7647C0.185531 8.222 0.0560093 7.59122 0.00233372 6.93783L0 6.90808C0 6.30666 0.346947 6.00595 1.04084 6.00595H4.10969C4.13769 6.00357 4.17036 6.00238 4.2042 6.00238C4.49358 6.00238 4.76079 6.10354 4.972 6.27373L4.96966 6.27135C5.20303 6.53199 5.37573 6.85214 5.46091 7.20918L5.46441 7.22347C6.02917 8.85039 6.62777 10.2167 7.31622 11.5258L7.23804 11.3628C7.80047 12.5172 8.4224 13.511 9.13186 14.4286L9.10502 14.3917C9.72734 15.1708 10.2128 15.5604 10.5613 15.5604C10.5718 15.5616 10.5846 15.5616 10.5986 15.5616C10.7713 15.5616 10.9218 15.4664 11.0035 15.3236L11.0047 15.3212C11.091 15.0951 11.1412 14.832 11.1412 14.5583C11.1412 14.5 11.1389 14.4417 11.1342 14.3846V14.3917V9.77513C11.1097 9.23124 10.979 8.72305 10.7608 8.26722L10.7701 8.28983C10.6254 7.97564 10.4516 7.70428 10.245 7.46269L10.2485 7.46745C10.0572 7.27226 9.92649 7.01638 9.88565 6.73075L9.88448 6.72361C9.88448 6.52128 9.9755 6.33919 10.1179 6.22018L10.119 6.21899C10.2602 6.08688 10.4492 6.00714 10.6558 6.00714H10.6651H15.5029C15.5286 6.00357 15.5578 6.00238 15.5881 6.00238C15.8156 6.00238 16.0198 6.10711 16.1552 6.27135L16.1564 6.27254C16.2765 6.49629 16.3477 6.76407 16.3477 7.04733C16.3477 7.09255 16.3454 7.13659 16.3419 7.18062V7.17467V13.3313C16.3396 13.3598 16.3384 13.3932 16.3384 13.4265C16.3384 13.6455 16.3979 13.8514 16.5006 14.0263L16.4983 14.0216C16.5834 14.1501 16.7258 14.2334 16.8868 14.2334H16.888C17.0933 14.2191 17.28 14.1501 17.4376 14.0406L17.4341 14.043C17.7515 13.8204 18.0245 13.5669 18.2614 13.2801L18.266 13.2742C18.9743 12.4577 19.6278 11.5556 20.1972 10.5963L20.2427 10.513C20.6441 9.83464 21.0782 8.99916 21.4714 8.14107L21.5438 7.96612L22.0642 6.90451C22.245 6.3737 22.7305 6 23.3011 6C23.3232 6 23.3454 6 23.3676 6.00119H23.3641H26.4341C27.2633 6.00119 27.5745 6.39037 27.3676 7.16872H27.3664Z" fill="white"/>
</g>
</svg>
