<svg width="22" height="22" viewBox="0 0 22 22" fill="none" xmlns="http://www.w3.org/2000/svg">
<g opacity="0.5" clip-path="url(#clip0_22_2804)">
<path d="M3.89814 0C1.7387 0 0 1.7387 0 3.89814V18.1019C0 20.2613 1.7387 22 3.89814 22H14.3523L22 11.0028L14.3523 2.2e-05H3.89814V0ZM9.7522 4.01639H12.2361C12.3886 4.01639 12.4761 4.07216 12.4761 4.20339V17.8929C12.4761 17.986 12.4322 18.0421 12.3014 18.0421H10.9505C10.864 18.0421 10.7986 17.9674 10.7986 17.9114V12.8432H9.70818L6.67975 17.9114C6.63628 18.0047 6.54925 18.0421 6.4185 18.0421H4.87161C4.69781 18.0421 4.58883 17.9115 4.69768 17.743L8.03068 12.5812C6.24457 11.908 5.24218 10.5428 5.24218 8.69136C5.24218 5.60556 7.31218 4.01636 9.75218 4.01636L9.7522 4.01639ZM9.68689 5.21264C8.35782 5.21264 7.05032 6.16638 7.05032 8.50439C7.05032 10.7486 8.44488 11.6463 9.88282 11.6463H10.7986V5.21264H9.68689Z" fill="white"/>
</g>
<defs>
<clipPath id="clip0_22_2804">
<rect width="22" height="22" fill="white"/>
</clipPath>
</defs>
</svg>
