<svg width="42" height="42" viewBox="0 0 42 42" fill="none" xmlns="http://www.w3.org/2000/svg">
<path d="M13.7838 4V9.28571M27.6216 4V9.28571M6 16.4919H35.4054M38 33.9524C38 35.2738 37.6368 36.5247 36.9968 37.5819C36.387 38.6258 35.5208 39.49 34.4835 40.0893C33.4463 40.6887 32.2736 41.0025 31.0811 41C29.3341 41 27.7427 40.3481 26.5319 39.2381C25.9957 38.78 25.5286 38.2162 25.1654 37.5819C24.507 36.4903 24.1596 35.2336 24.1622 33.9524C24.1622 30.0586 27.2584 26.9048 31.0811 26.9048C33.1568 26.9048 35.0076 27.8386 36.2703 29.3009C37.3827 30.5858 37.9976 32.2393 38 33.9524Z" stroke="black" stroke-width="2" stroke-miterlimit="10" stroke-linecap="round" stroke-linejoin="round"/>
<path d="M29 33.4924L30.5865 35L34 32" stroke="#AD475C" stroke-width="2" stroke-linecap="round" stroke-linejoin="round"/>
<path d="M37 14.6486V28.2443C35.7022 26.8087 33.8 25.8919 31.6667 25.8919C27.7378 25.8919 24.5556 28.9881 24.5556 32.8108C24.5556 34.1081 24.9289 35.3362 25.5867 36.3741C25.96 36.9968 26.44 37.5503 26.9911 38H13.8889C7.66667 38 5 34.5405 5 29.3514V14.6486C5 9.45946 7.66667 6 13.8889 6H28.1111C34.3333 6 37 9.45946 37 14.6486Z" stroke="black" stroke-width="2" stroke-miterlimit="10" stroke-linecap="round" stroke-linejoin="round"/>
<path d="M20.9838 24H21M15 24H15.0162M15 29H15.0162" stroke="#AD475C" stroke-width="3" stroke-linecap="round" stroke-linejoin="round"/>
</svg>
