<svg width="20" height="20" viewBox="0 0 20 20" fill="none" xmlns="http://www.w3.org/2000/svg">
<path d="M14.4274 10.9001L10.7694 19C10.0418 19 9.34394 18.7155 8.82943 18.2092C8.31492 17.7028 8.02587 17.0161 8.02587 16.3L8.02587 12.7L2.84973 12.7C2.58461 12.703 2.322 12.6492 2.08011 12.5423C1.83821 12.4355 1.62281 12.2782 1.44883 12.0813C1.27485 11.8844 1.14645 11.6526 1.07253 11.402C0.998603 11.1514 0.980923 10.888 1.02071 10.6301L2.28274 2.53011C2.34888 2.10089 2.57041 1.70967 2.90652 1.42851C3.24263 1.14735 3.67066 0.995209 4.11176 1.00012L14.4274 1.00012M14.4274 10.9001L14.4274 1.00012M14.4274 10.9001L17.171 10.9001C17.6561 10.9001 18.1213 10.7104 18.4643 10.3728C18.8073 10.0353 19 9.57745 19 9.10006L19 2.8001C19 2.32272 18.8073 1.86488 18.4643 1.52732C18.1213 1.18976 17.6561 1.00012 17.171 1.00012L14.4274 1.00012" stroke="#B2AAAA" stroke-width="2" stroke-linecap="round" stroke-linejoin="round"/>
</svg>
