<svg width="42" height="42" viewBox="0 0 42 42" fill="none" xmlns="http://www.w3.org/2000/svg">
<path d="M15.375 33.661H14.5C7.5 33.661 4 31.9163 4 23.1924V14.4686C4 7.48953 7.5 4 14.5 4H28.5C35.5 4 39 7.48953 39 14.4686V23.1924C39 30.1715 35.5 33.661 28.5 33.661H27.625C27.0825 33.661 26.5575 33.9227 26.225 34.3589L23.6 37.8485C22.445 39.3838 20.555 39.3838 19.4 37.8485L16.775 34.3589C16.495 33.9751 15.8475 33.661 15.375 33.661Z" stroke="black" stroke-width="2" stroke-miterlimit="10" stroke-linecap="round" stroke-linejoin="round"/>
<path d="M12 14H30M12 23H22.8" stroke="#AD475C" stroke-width="2" stroke-linecap="round" stroke-linejoin="round"/>
</svg>
