<svg width="42" height="42" viewBox="0 0 42 42" fill="none" xmlns="http://www.w3.org/2000/svg">
<path d="M28.5 4H14.5C7.5 4 4 7.5 4 14.5V37.25C4 38.2125 4.7875 39 5.75 39H28.5C35.5 39 39 35.5 39 28.5V14.5C39 7.5 35.5 4 28.5 4Z" stroke="black" stroke-width="2" stroke-linecap="round" stroke-linejoin="round"/>
<path d="M22.6332 13.5071L13.2997 22.8389C12.94 23.1985 12.5984 23.8998 12.5264 24.4032L12.0229 27.9633C11.8431 29.2579 12.7422 30.1569 14.037 29.9771L17.5978 29.4737C18.1013 29.4017 18.8027 29.0601 19.1623 28.7005L28.4958 19.3687C30.0963 17.7685 30.8696 15.8985 28.4958 13.5251C26.1219 11.1337 24.2517 11.8889 22.6332 13.5071Z" stroke="#AD475C" stroke-width="2" stroke-miterlimit="10" stroke-linecap="round" stroke-linejoin="round"/>
<path d="M21 15C21.4008 16.4311 22.1634 17.7349 23.2142 18.7858C24.2651 19.8366 25.5689 20.5992 27 21" stroke="#AD475C" stroke-width="2" stroke-miterlimit="10" stroke-linecap="round" stroke-linejoin="round"/>
</svg>
