<svg width="283" height="283" viewBox="0 0 283 283" fill="none" xmlns="http://www.w3.org/2000/svg">
<g clip-path="url(#clip0_22_2917)">
<g filter="url(#filter0_d_22_2917)">
<path d="M157.072 49.1429C167.826 42.5839 181.892 47.4785 186.251 59.2961L192.997 77.5845C195.03 83.0974 199.385 87.4372 204.905 89.4514L223.217 96.1336C235.049 100.451 239.993 114.501 233.471 125.277L223.379 141.954C220.336 146.981 219.658 153.091 221.525 158.663L227.718 177.146C231.72 189.089 223.818 201.713 211.327 203.333L191.996 205.841C186.169 206.596 180.969 209.876 177.776 214.81L167.187 231.175C160.345 241.751 145.547 243.444 136.493 234.688L122.48 221.137C118.256 217.053 112.449 215.032 106.602 215.612L87.2046 217.537C74.6702 218.781 64.1206 208.268 65.3207 195.729L67.1781 176.325C67.738 170.476 65.6973 164.676 61.598 160.467L47.999 146.501C39.2115 137.477 40.8533 122.674 51.4047 115.795L67.7335 105.148C72.6557 101.939 75.9176 96.7278 76.6531 90.8981L79.0929 71.5586C80.6695 59.0617 93.2665 51.1159 105.224 55.0761L123.728 61.2047C129.306 63.0521 135.414 62.3531 140.431 59.2934L157.072 49.1429Z" fill="white"/>
</g>
<path d="M116.557 136.814C126.38 140.232 135.924 135.929 139.933 124.407C143.91 112.979 139.131 103.587 129.308 100.169C119.581 96.784 110.004 101.181 106.027 112.609C102.018 124.131 106.829 133.429 116.557 136.814ZM99.9635 165.028L113.564 169.76L181.713 119.357L168.113 114.625L99.9635 165.028ZM119.679 127.842C116.657 126.79 115.027 123.258 117.361 116.552C119.694 109.847 123.164 108.09 126.186 109.141C129.398 110.259 130.838 113.725 128.505 120.43C126.172 127.136 122.891 128.959 119.679 127.842ZM152.368 184.216C162.191 187.634 171.735 183.331 175.744 171.809C179.721 160.381 174.942 150.989 165.12 147.571C155.297 144.153 145.815 148.583 141.838 160.011C137.829 171.533 142.546 180.798 152.368 184.216ZM155.49 175.243C152.374 174.159 150.838 170.66 153.172 163.954C155.505 157.249 158.881 155.459 161.997 156.543C165.114 157.628 166.65 161.127 164.316 167.832C161.983 174.538 158.607 176.328 155.49 175.243Z" fill="#AD475C"/>
</g>
<defs>
<filter id="filter0_d_22_2917" x="42.3271" y="46.2095" width="214.042" height="214.102" filterUnits="userSpaceOnUse" color-interpolation-filters="sRGB">
<feFlood flood-opacity="0" result="BackgroundImageFix"/>
<feColorMatrix in="SourceAlpha" type="matrix" values="0 0 0 0 0 0 0 0 0 0 0 0 0 0 0 0 0 0 127 0" result="hardAlpha"/>
<feOffset dx="10" dy="10"/>
<feGaussianBlur stdDeviation="5"/>
<feComposite in2="hardAlpha" operator="out"/>
<feColorMatrix type="matrix" values="0 0 0 0 0.163333 0 0 0 0 0.163333 0 0 0 0 0.163333 0 0 0 0.2 0"/>
<feBlend mode="normal" in2="BackgroundImageFix" result="effect1_dropShadow_22_2917"/>
<feBlend mode="normal" in="SourceGraphic" in2="effect1_dropShadow_22_2917" result="shape"/>
</filter>
<clipPath id="clip0_22_2917">
<rect width="222" height="222" fill="white" transform="translate(73) rotate(19.1861)"/>
</clipPath>
</defs>
</svg>
